<svg width="109" height="84" viewBox="0 0 109 84" fill="none" xmlns="http://www.w3.org/2000/svg">
<path d="M98.7812 0C104.423 0 109 4.70094 109 10.5C109 13.8031 107.488 16.9094 104.912 18.9L58.5875 54.6C56.1605 56.4594 52.8395 56.4594 50.4125 54.6L4.0875 18.9C1.51429 16.9094 0 13.8031 0 10.5C0 4.70094 4.57502 0 10.2188 0H98.7812ZM46.325 60.2C51.1789 63.9406 57.8211 63.9406 62.675 60.2L109 24.5V70C109 77.7219 102.89 84 95.375 84H13.625C6.09932 84 0 77.7219 0 70V24.5L46.325 60.2Z" fill="white"/>
</svg>
