<svg width="241" height="46" viewBox="0 0 241 46" fill="none" xmlns="http://www.w3.org/2000/svg">
<g filter="url(#filter0_d_7_53)">
<path d="M32.0938 19.1641V32.6875C31.5625 33.3281 30.7422 34.0234 29.6328 34.7734C28.5234 35.5078 27.0938 36.1406 25.3438 36.6719C23.5938 37.2031 21.4766 37.4688 18.9922 37.4688C16.7891 37.4688 14.7812 37.1094 12.9688 36.3906C11.1562 35.6562 9.59375 34.5859 8.28125 33.1797C6.98438 31.7734 5.98438 30.0547 5.28125 28.0234C4.57812 25.9766 4.22656 23.6406 4.22656 21.0156V18.8828C4.22656 16.2578 4.5625 13.9219 5.23438 11.875C5.92188 9.82812 6.89844 8.10156 8.16406 6.69531C9.42969 5.28906 10.9375 4.21875 12.6875 3.48438C14.4375 2.75 16.3828 2.38281 18.5234 2.38281C21.4922 2.38281 23.9297 2.86719 25.8359 3.83594C27.7422 4.78906 29.1953 6.11719 30.1953 7.82031C31.2109 9.50781 31.8359 11.4453 32.0703 13.6328H25.25C25.0781 12.4766 24.75 11.4688 24.2656 10.6094C23.7812 9.75 23.0859 9.07812 22.1797 8.59375C21.2891 8.10938 20.1328 7.86719 18.7109 7.86719C17.5391 7.86719 16.4922 8.10938 15.5703 8.59375C14.6641 9.0625 13.8984 9.75781 13.2734 10.6797C12.6484 11.6016 12.1719 12.7422 11.8438 14.1016C11.5156 15.4609 11.3516 17.0391 11.3516 18.8359V21.0156C11.3516 22.7969 11.5234 24.375 11.8672 25.75C12.2109 27.1094 12.7188 28.2578 13.3906 29.1953C14.0781 30.1172 14.9219 30.8125 15.9219 31.2812C16.9219 31.75 18.0859 31.9844 19.4141 31.9844C20.5234 31.9844 21.4453 31.8906 22.1797 31.7031C22.9297 31.5156 23.5312 31.2891 23.9844 31.0234C24.4531 30.7422 24.8125 30.4766 25.0625 30.2266V24.1797H18.6406V19.1641H32.0938Z" fill="#FFFEFE"/>
<path d="M49.2687 1V37H42.4953V1H49.2687Z" fill="#FFFEFE"/>
<path d="M74.6469 30.9297V11.6406H81.3969V37H75.0453L74.6469 30.9297ZM75.3969 25.7266L77.3891 25.6797C77.3891 27.3672 77.1937 28.9375 76.8031 30.3906C76.4125 31.8281 75.8266 33.0781 75.0453 34.1406C74.2641 35.1875 73.2797 36.0078 72.0922 36.6016C70.9047 37.1797 69.5062 37.4688 67.8969 37.4688C66.6625 37.4688 65.5219 37.2969 64.475 36.9531C63.4437 36.5938 62.5531 36.0391 61.8031 35.2891C61.0687 34.5234 60.4906 33.5469 60.0687 32.3594C59.6625 31.1562 59.4594 29.7109 59.4594 28.0234V11.6406H66.2094V28.0703C66.2094 28.8203 66.2953 29.4531 66.4672 29.9688C66.6547 30.4844 66.9125 30.9062 67.2406 31.2344C67.5687 31.5625 67.9516 31.7969 68.3891 31.9375C68.8422 32.0781 69.3422 32.1484 69.8891 32.1484C71.2797 32.1484 72.3734 31.8672 73.1703 31.3047C73.9828 30.7422 74.5531 29.9766 74.8812 29.0078C75.225 28.0234 75.3969 26.9297 75.3969 25.7266Z" fill="#FFFEFE"/>
<path d="M98.1031 17.1719V37H91.3531V11.6406H97.7047L98.1031 17.1719ZM105.744 11.4766L105.627 17.7344C105.298 17.6875 104.9 17.6484 104.431 17.6172C103.978 17.5703 103.564 17.5469 103.189 17.5469C102.236 17.5469 101.408 17.6719 100.705 17.9219C100.017 18.1562 99.4391 18.5078 98.9703 18.9766C98.5172 19.4453 98.1734 20.0156 97.9391 20.6875C97.7203 21.3594 97.5953 22.125 97.5641 22.9844L96.2047 22.5625C96.2047 20.9219 96.3688 19.4141 96.6969 18.0391C97.025 16.6484 97.5016 15.4375 98.1266 14.4062C98.7672 13.375 99.5484 12.5781 100.47 12.0156C101.392 11.4531 102.447 11.1719 103.634 11.1719C104.009 11.1719 104.392 11.2031 104.783 11.2656C105.173 11.3125 105.494 11.3828 105.744 11.4766Z" fill="#FFFEFE"/>
<path d="M141.2 19.1641V32.6875C140.669 33.3281 139.848 34.0234 138.739 34.7734C137.63 35.5078 136.2 36.1406 134.45 36.6719C132.7 37.2031 130.583 37.4688 128.098 37.4688C125.895 37.4688 123.887 37.1094 122.075 36.3906C120.262 35.6562 118.7 34.5859 117.387 33.1797C116.091 31.7734 115.091 30.0547 114.387 28.0234C113.684 25.9766 113.333 23.6406 113.333 21.0156V18.8828C113.333 16.2578 113.669 13.9219 114.341 11.875C115.028 9.82812 116.005 8.10156 117.27 6.69531C118.536 5.28906 120.044 4.21875 121.794 3.48438C123.544 2.75 125.489 2.38281 127.63 2.38281C130.598 2.38281 133.036 2.86719 134.942 3.83594C136.848 4.78906 138.302 6.11719 139.302 7.82031C140.317 9.50781 140.942 11.4453 141.177 13.6328H134.356C134.184 12.4766 133.856 11.4688 133.372 10.6094C132.887 9.75 132.192 9.07812 131.286 8.59375C130.395 8.10938 129.239 7.86719 127.817 7.86719C126.645 7.86719 125.598 8.10938 124.677 8.59375C123.77 9.0625 123.005 9.75781 122.38 10.6797C121.755 11.6016 121.278 12.7422 120.95 14.1016C120.622 15.4609 120.458 17.0391 120.458 18.8359V21.0156C120.458 22.7969 120.63 24.375 120.973 25.75C121.317 27.1094 121.825 28.2578 122.497 29.1953C123.184 30.1172 124.028 30.8125 125.028 31.2812C126.028 31.75 127.192 31.9844 128.52 31.9844C129.63 31.9844 130.552 31.8906 131.286 31.7031C132.036 31.5156 132.637 31.2891 133.091 31.0234C133.559 30.7422 133.919 30.4766 134.169 30.2266V24.1797H127.747V19.1641H141.2Z" fill="#FFFEFE"/>
<path d="M162.922 37.4688C160.953 37.4688 159.188 37.1562 157.625 36.5312C156.062 35.8906 154.734 35.0078 153.641 33.8828C152.562 32.7578 151.734 31.4531 151.156 29.9688C150.578 28.4688 150.289 26.875 150.289 25.1875V24.25C150.289 22.3281 150.562 20.5703 151.109 18.9766C151.656 17.3828 152.438 16 153.453 14.8281C154.484 13.6562 155.734 12.7578 157.203 12.1328C158.672 11.4922 160.328 11.1719 162.172 11.1719C163.969 11.1719 165.562 11.4688 166.953 12.0625C168.344 12.6562 169.508 13.5 170.445 14.5938C171.398 15.6875 172.117 17 172.602 18.5312C173.086 20.0469 173.328 21.7344 173.328 23.5938V26.4062H153.172V21.9062H166.695V21.3906C166.695 20.4531 166.523 19.6172 166.18 18.8828C165.852 18.1328 165.352 17.5391 164.68 17.1016C164.008 16.6641 163.148 16.4453 162.102 16.4453C161.211 16.4453 160.445 16.6406 159.805 17.0312C159.164 17.4219 158.641 17.9688 158.234 18.6719C157.844 19.375 157.547 20.2031 157.344 21.1562C157.156 22.0938 157.062 23.125 157.062 24.25V25.1875C157.062 26.2031 157.203 27.1406 157.484 28C157.781 28.8594 158.195 29.6016 158.727 30.2266C159.273 30.8516 159.93 31.3359 160.695 31.6797C161.477 32.0234 162.359 32.1953 163.344 32.1953C164.562 32.1953 165.695 31.9609 166.742 31.4922C167.805 31.0078 168.719 30.2812 169.484 29.3125L172.766 32.875C172.234 33.6406 171.508 34.375 170.586 35.0781C169.68 35.7812 168.586 36.3594 167.305 36.8125C166.023 37.25 164.562 37.4688 162.922 37.4688Z" fill="#FFFEFE"/>
<path d="M193.644 37.4688C191.675 37.4688 189.909 37.1562 188.347 36.5312C186.784 35.8906 185.456 35.0078 184.363 33.8828C183.284 32.7578 182.456 31.4531 181.878 29.9688C181.3 28.4688 181.011 26.875 181.011 25.1875V24.25C181.011 22.3281 181.284 20.5703 181.831 18.9766C182.378 17.3828 183.159 16 184.175 14.8281C185.206 13.6562 186.456 12.7578 187.925 12.1328C189.394 11.4922 191.05 11.1719 192.894 11.1719C194.691 11.1719 196.284 11.4688 197.675 12.0625C199.066 12.6562 200.23 13.5 201.167 14.5938C202.12 15.6875 202.839 17 203.323 18.5312C203.808 20.0469 204.05 21.7344 204.05 23.5938V26.4062H183.894V21.9062H197.417V21.3906C197.417 20.4531 197.245 19.6172 196.902 18.8828C196.573 18.1328 196.073 17.5391 195.402 17.1016C194.73 16.6641 193.87 16.4453 192.823 16.4453C191.933 16.4453 191.167 16.6406 190.527 17.0312C189.886 17.4219 189.363 17.9688 188.956 18.6719C188.566 19.375 188.269 20.2031 188.066 21.1562C187.878 22.0938 187.784 23.125 187.784 24.25V25.1875C187.784 26.2031 187.925 27.1406 188.206 28C188.503 28.8594 188.917 29.6016 189.448 30.2266C189.995 30.8516 190.652 31.3359 191.417 31.6797C192.198 32.0234 193.081 32.1953 194.066 32.1953C195.284 32.1953 196.417 31.9609 197.464 31.4922C198.527 31.0078 199.441 30.2812 200.206 29.3125L203.488 32.875C202.956 33.6406 202.23 34.375 201.308 35.0781C200.402 35.7812 199.308 36.3594 198.027 36.8125C196.745 37.25 195.284 37.4688 193.644 37.4688Z" fill="#FFFEFE"/>
<path d="M219.444 0.976562V37H212.694V0.976562H219.444ZM235.428 11.6406L224.413 24.2031L218.506 30.1797L216.045 25.3047L220.733 19.3516L227.319 11.6406H235.428ZM228.42 37L220.92 25.2812L225.584 21.2031L236.202 37H228.42Z" fill="#FFFEFE"/>
</g>
<defs>
<filter id="filter0_d_7_53" x="0.226562" y="0.976562" width="239.975" height="44.4922" filterUnits="userSpaceOnUse" color-interpolation-filters="sRGB">
<feFlood flood-opacity="0" result="BackgroundImageFix"/>
<feColorMatrix in="SourceAlpha" type="matrix" values="0 0 0 0 0 0 0 0 0 0 0 0 0 0 0 0 0 0 127 0" result="hardAlpha"/>
<feOffset dy="4"/>
<feGaussianBlur stdDeviation="2"/>
<feComposite in2="hardAlpha" operator="out"/>
<feColorMatrix type="matrix" values="0 0 0 0 0 0 0 0 0 0 0 0 0 0 0 0 0 0 0.25 0"/>
<feBlend mode="normal" in2="BackgroundImageFix" result="effect1_dropShadow_7_53"/>
<feBlend mode="normal" in="SourceGraphic" in2="effect1_dropShadow_7_53" result="shape"/>
</filter>
</defs>
</svg>
