<svg width="131" height="111" viewBox="0 0 131 111" fill="none" xmlns="http://www.w3.org/2000/svg">
<path d="M117.534 32.8916C117.617 33.8775 117.617 34.8638 117.617 35.8497C117.617 65.9238 90.6029 100.576 41.2284 100.576C26.0171 100.576 11.8865 96.8432 0 90.3638C2.16124 90.5749 4.23908 90.6454 6.48348 90.6454C19.0347 90.6454 30.5888 87.0535 39.8153 80.9259C28.012 80.7146 18.1205 74.1645 14.7124 65.1492C16.375 65.3604 18.0373 65.5013 19.783 65.5013C22.1935 65.5013 24.6042 65.2194 26.8483 64.7267C14.5464 62.6135 5.31957 53.4576 5.31957 42.3998V42.1182C8.89367 43.8086 13.0501 44.865 17.4552 45.0057C10.2236 40.9206 5.48588 33.948 5.48588 26.0596C5.48588 21.8338 6.81558 17.9601 9.14313 14.5794C22.3596 28.3839 42.2258 37.399 64.5021 38.3852C64.0866 36.6948 63.8372 34.9342 63.8372 33.1734C63.8372 20.6365 75.8068 10.424 90.6855 10.424C98.4158 10.424 105.398 13.1708 110.302 17.608C116.37 16.622 122.188 14.7203 127.342 12.1144C125.347 17.3969 121.108 21.834 115.539 24.6511C120.942 24.1583 126.179 22.8903 130.999 21.1297C127.343 25.6371 122.771 29.6515 117.534 32.8916V32.8916Z" fill="white"/>
</svg>
