<svg width="131" height="123" viewBox="0 0 131 123" fill="none" xmlns="http://www.w3.org/2000/svg">
<path d="M125.008 29.809C123.58 24.1275 119.371 19.6529 114.027 18.1343C104.341 15.375 65.5 15.375 65.5 15.375C65.5 15.375 26.6594 15.375 16.9729 18.1343C11.629 19.6531 7.42015 24.1275 5.99166 29.809C3.39622 40.1071 3.39622 61.5932 3.39622 61.5932C3.39622 61.5932 3.39622 83.0793 5.99166 93.3774C7.42015 99.059 11.629 103.347 16.9729 104.866C26.6594 107.625 65.5 107.625 65.5 107.625C65.5 107.625 104.341 107.625 114.027 104.866C119.371 103.347 123.58 99.059 125.008 93.3774C127.604 83.0793 127.604 61.5932 127.604 61.5932C127.604 61.5932 127.604 40.1071 125.008 29.809V29.809ZM52.7969 81.101V42.0855L85.2601 61.5937L52.7969 81.101V81.101Z" fill="white"/>
</svg>
